<?xml version="1.0" standalone="no"?>
<!DOCTYPE svg PUBLIC "-//W3C//DTD SVG 20010904//EN"
 "http://www.w3.org/TR/2001/REC-SVG-20010904/DTD/svg10.dtd">
<svg version="1.0" xmlns="http://www.w3.org/2000/svg"
 width="181.000000pt" height="181.000000pt" viewBox="0 0 181.000000 181.000000"
 preserveAspectRatio="xMidYMid meet">
<metadata>
Created by potrace 1.14, written by Peter Selinger 2001-2017
</metadata>
<g transform="translate(0.000000,181.000000) scale(0.100000,-0.100000)"
fill="#000000" stroke="none">
<path d="M568 1411 c-80 -73 -126 -145 -138 -213 -10 -64 -28 -104 -60 -133
-12 -11 -99 -70 -193 -131 l-172 -111 -3 -46 c-2 -26 -1 -47 2 -47 13 0 384
237 409 261 15 15 27 25 27 23 0 -15 -32 -62 -57 -85 -24 -23 -270 -181 -330
-214 l-22 -12 27 -32 27 -33 25 19 c14 11 89 59 167 107 79 49 156 104 173
122 16 19 30 31 30 27 0 -15 -42 -78 -69 -103 -24 -24 -184 -132 -259 -175
-17 -11 -32 -22 -32 -26 0 -3 11 -18 24 -34 l24 -27 134 90 c142 97 169 119
194 158 25 37 28 21 5 -23 -23 -47 -51 -72 -188 -173 -56 -41 -102 -82 -103
-90 0 -9 9 -24 21 -33 20 -18 23 -16 136 65 63 46 129 99 146 118 33 38 31 16
-5 -35 -16 -24 -175 -158 -221 -187 -8 -5 -2 -17 17 -37 24 -25 31 -28 43 -16
7 8 35 31 61 52 127 103 152 134 179 227 33 117 65 156 248 305 l133 108 -27
32 -27 32 -90 -78 c-49 -43 -120 -108 -159 -145 -38 -37 -71 -63 -73 -58 -13
35 86 141 261 276 15 12 27 26 27 31 0 11 -33 43 -43 43 -8 0 -248 -208 -259
-224 -16 -24 -18 5 -2 35 20 40 17 38 134 129 52 41 97 80 98 85 4 13 -28 55
-42 55 -6 0 -36 -22 -67 -48 -31 -26 -71 -58 -89 -72 -17 -14 -45 -43 -62 -65
-30 -39 -30 -40 -23 -10 3 17 13 40 21 52 13 20 124 114 183 153 l21 15 -23
29 -24 30 -30 -22 c-54 -38 -104 -86 -149 -140 -45 -54 -56 -50 -30 11 12 29
69 90 148 159 l27 23 -23 28 -23 28 -55 -50z"/>
<path d="M695 724 c-25 -26 -14 -49 28 -59 15 -4 27 -13 27 -21 0 -18 -9 -18
-29 0 -11 10 -21 12 -31 6 -13 -8 -13 -11 0 -24 30 -29 94 -20 103 14 5 21
-10 38 -52 57 -25 12 -24 12 12 7 23 -4 37 -2 37 4 0 26 -73 38 -95 16z"/>
<path d="M843 728 c-13 -6 -23 -16 -24 -22 0 -6 -2 -20 -4 -31 -7 -36 21 -65
64 -65 43 0 62 16 67 58 6 53 -49 85 -103 60z m55 -31 c17 -20 8 -52 -16 -55
-12 -2 -23 1 -23 7 -1 6 -2 17 -3 24 -2 14 13 37 24 37 4 0 12 -6 18 -13z"/>
<path d="M984 732 c-6 -4 -11 -26 -11 -50 0 -56 32 -85 79 -72 41 12 42 13 45
75 1 38 -2 55 -10 55 -24 0 -34 -15 -31 -46 3 -39 -9 -59 -31 -51 -12 5 -15
15 -11 38 7 48 -4 68 -30 51z"/>
<path d="M1126 732 c-15 -14 -5 -34 14 -29 18 5 20 0 20 -44 0 -42 3 -49 19
-49 17 0 20 8 23 48 2 34 7 47 18 47 8 0 15 7 15 15 0 10 -14 15 -52 16 -28 1
-54 0 -57 -4z"/>
<path d="M1268 736 c0 -1 -2 -29 -3 -63 -1 -55 1 -63 17 -63 17 0 22 10 19 38
-1 7 9 12 24 12 22 0 25 -4 21 -26 -4 -21 -2 -25 17 -22 20 3 22 9 23 65 2 55
0 61 -17 60 -10 -1 -20 -5 -20 -9 -1 -4 -2 -14 -3 -20 0 -7 -12 -15 -25 -16
-13 -2 -21 0 -17 6 12 20 -15 49 -36 38z"/>
<path d="M1423 727 c-4 -6 -7 -34 -7 -62 l1 -50 53 0 c34 0 55 5 58 13 2 8 -8
12 -32 12 -20 0 -36 5 -36 10 0 6 11 10 25 10 16 0 25 6 25 16 0 12 -7 15 -25
12 -16 -4 -25 -1 -25 8 0 7 14 14 33 16 17 2 31 8 30 13 -3 14 -91 16 -100 2z"/>
<path d="M1563 732 c-6 -4 -11 -33 -12 -65 -1 -55 0 -58 22 -55 16 2 22 9 21
26 -2 29 9 28 26 -3 8 -16 22 -25 37 -25 22 0 23 1 8 24 -13 19 -14 28 -4 50
8 18 9 30 2 37 -12 12 -85 20 -100 11z m61 -31 c3 -5 -1 -11 -9 -15 -15 -6
-29 7 -18 18 9 9 21 8 27 -3z"/>
<path d="M1699 723 c-1 -20 -1 -81 0 -100 1 -7 9 -13 20 -13 14 0 18 6 16 25
-2 14 1 25 6 25 5 0 16 -11 25 -25 30 -45 44 -32 44 41 0 48 -3 65 -12 61 -7
-2 -13 -19 -12 -37 l0 -33 -29 37 c-31 39 -56 47 -58 19z"/>
<path d="M726 525 c-9 -7 -21 -27 -26 -43 -7 -26 -4 -35 15 -56 19 -21 31 -25
67 -22 42 3 43 4 46 40 3 34 2 36 -27 36 -21 0 -31 -5 -31 -15 0 -8 5 -15 10
-15 6 0 10 -4 10 -10 0 -16 -37 -11 -44 6 -17 44 2 70 37 52 10 -5 24 -5 33 0
13 7 13 10 1 20 -21 17 -71 21 -91 7z"/>
<path d="M883 532 c-23 -3 -25 -10 -25 -77 0 -46 2 -51 22 -51 16 0 20 7 20
31 1 28 2 29 15 11 8 -10 16 -23 17 -28 4 -10 48 -20 48 -10 0 4 -6 17 -14 28
-12 16 -12 22 0 38 27 37 -17 68 -83 58z m47 -43 c0 -5 -7 -9 -15 -9 -8 0 -15
7 -15 15 0 9 6 12 15 9 8 -4 15 -10 15 -15z"/>
<path d="M1043 532 c-27 -4 -40 -20 -47 -57 -9 -50 44 -86 96 -64 71 29 29
134 -49 121z m43 -54 c1 -9 -4 -25 -12 -35 -14 -17 -14 -17 -28 0 -12 15 -13
28 -7 55 3 12 45 -6 47 -20z"/>
<path d="M1156 532 c-3 -5 -3 -30 -2 -56 3 -56 25 -79 69 -72 43 7 53 21 54
76 1 47 0 51 -20 48 -17 -3 -21 -10 -20 -45 1 -64 -40 -67 -43 -3 -1 14 -2 30
-3 36 -1 14 -29 26 -35 16z"/>
<path d="M1333 532 c-19 -3 -23 -10 -24 -40 -1 -41 1 -85 6 -90 8 -8 35 13 35
28 0 11 10 20 29 23 33 7 49 40 32 61 -13 16 -46 23 -78 18z m47 -43 c0 -5 -7
-9 -15 -9 -8 0 -15 7 -15 15 0 9 6 12 15 9 8 -4 15 -10 15 -15z"/>
</g>
</svg>
